/* XPM */
static char *_72f17bc0b9747609550137836420b3fU0qNni6XbTJWBPXM[] = {
/* columns rows colors chars-per-pixel */
"64 64 256 2 ",
"   c black",
".  c #1F170B",
"X  c #170F07",
"o  c #4B4B4B",
"O  c white",
"+  c #1B1B1B",
"@  c #131313",
"#  c #0B0B0B",
"$  c #070707",
"%  c #2F371F",
"&  c #232B0F",
"*  c #171F07",
"=  c #0F1700",
"-  c #4F3B2B",
";  c #473323",
":  c #3F2B1B",
">  c #FFB7B7",
",  c #F7ABAB",
"<  c #F3A3A3",
"1  c #EB9797",
"2  c #E78F8F",
"3  c #DF8787",
"4  c #DB7B7B",
"5  c #D37373",
"6  c #CB6B6B",
"7  c #C76363",
"8  c #BF5B5B",
"9  c #BB5757",
"0  c #B34F4F",
"q  c #AF4747",
"w  c #A73F3F",
"e  c #A33B3B",
"r  c #9B3333",
"t  c #972F2F",
"y  c #8F2B2B",
"u  c #8B2323",
"i  c #831F1F",
"p  c #7F1B1B",
"a  c #771717",
"s  c #731313",
"d  c #6B0F0F",
"f  c #670B0B",
"g  c #5F0707",
"h  c #5B0707",
"j  c #530707",
"k  c #4F0000",
"l  c #470000",
"z  c #430000",
"x  c #FFEBDF",
"c  c #FFE3D3",
"v  c #FFDBC7",
"b  c #FFD3BB",
"n  c #FFCFB3",
"m  c #FFC7A7",
"M  c #FFBF9B",
"N  c #FFBB93",
"B  c #FFB383",
"V  c #F7AB7B",
"C  c #EFA373",
"Z  c #E79B6B",
"A  c #DF9363",
"S  c #D78B5B",
"D  c #CF8353",
"F  c #CB7F4F",
"G  c #BF7B4B",
"H  c #B37347",
"J  c #AB6F43",
"K  c #A36B3F",
"L  c #9B633B",
"P  c #8F5F37",
"I  c #875733",
"U  c #7F532F",
"Y  c #774F2B",
"T  c #6B4727",
"R  c #5F4323",
"E  c #533F1F",
"W  c #4B371B",
"Q  c #3F2F17",
"!  c #332B13",
"~  c #2B230F",
"^  c #EFEFEF",
"/  c #E7E7E7",
"(  c #DFDFDF",
")  c gray86",
"_  c LightGray",
"`  c #CBCBCB",
"'  c gray78",
"]  c gray75",
"[  c #B7B7B7",
"{  c gray70",
"}  c gray67",
"|  c #A7A7A7",
" . c #9F9F9F",
".. c #979797",
"X. c #939393",
"o. c #8B8B8B",
"O. c #838383",
"+. c gray50",
"@. c #777777",
"#. c #6F6F6F",
"$. c gray42",
"%. c gray39",
"&. c #5B5B5B",
"*. c gray34",
"=. c gray31",
"-. c gray28",
";. c #434343",
":. c gray23",
">. c #373737",
",. c #2F2F2F",
"<. c #272727",
"1. c #232323",
"2. c #77FF6F",
"3. c #6FEF67",
"4. c #67DF5F",
"5. c #5FCF57",
"6. c #5BBF4F",
"7. c #53AF47",
"8. c #4B9F3F",
"9. c #439337",
"0. c #3F832F",
"q. c #37732B",
"w. c #2F6323",
"e. c #27531B",
"r. c #1F4317",
"t. c #17330F",
"y. c #13230B",
"u. c #0B1707",
"i. c #BFA78F",
"p. c #B79F87",
"a. c #AF977F",
"s. c #A78F77",
"d. c #9F876F",
"f. c #9B7F6B",
"g. c #937B63",
"h. c #8B735B",
"j. c #836B57",
"k. c #7B634F",
"l. c #775F4B",
"z. c #6F5743",
"x. c #67533F",
"c. c #5F4B37",
"v. c #574333",
"b. c #533F2F",
"n. c #9F8363",
"m. c #8F7753",
"M. c #836B4B",
"N. c #775F3F",
"B. c #675333",
"V. c #5B472B",
"C. c #4F3B23",
"Z. c #43331B",
"A. c #7B7F63",
"S. c #6F7357",
"D. c #676B4F",
"F. c #5B6347",
"G. c #53573B",
"H. c #474F33",
"J. c #3F472B",
"K. c #373F27",
"L. c #FFFF73",
"P. c #EBDB57",
"I. c #D7BB43",
"U. c #C39B2F",
"Y. c #AF7B1F",
"T. c #9B5B13",
"R. c #874307",
"E. c #732B00",
"W. c white",
"Q. c #FFDBDB",
"!. c #FFBBBB",
"~. c #FF9B9B",
"^. c #FF7B7B",
"/. c #FF5F5F",
"(. c #FF3F3F",
"). c #FF1F1F",
"_. c red",
"`. c #EF0000",
"'. c #E30000",
"]. c #D70000",
"[. c #CB0000",
"{. c #BF0000",
"}. c #B30000",
"|. c #A70000",
" X c #9B0000",
".X c #8B0000",
"XX c #7F0000",
"oX c #730000",
"OX c #670000",
"+X c #5B0000",
"@X c #4F0000",
"#X c #430000",
"$X c #E7E7FF",
"%X c #C7C7FF",
"&X c #ABABFF",
"*X c #8F8FFF",
"=X c #7373FF",
"-X c #5353FF",
";X c #3737FF",
":X c #1B1BFF",
">X c blue",
",X c #0000E3",
"<X c #0000CB",
"1X c #0000B3",
"2X c #00009B",
"3X c #000083",
"4X c #00006B",
"5X c #000053",
"6X c white",
"7X c #FFEBDB",
"8X c #FFD7BB",
"9X c #FFC79B",
"0X c #FFB37B",
"qX c #FFA35B",
"wX c #FF8F3B",
"eX c #FF7F1B",
"rX c #F37317",
"tX c #EB6F0F",
"yX c #DF670F",
"uX c #D75F0B",
"iX c #CB5707",
"pX c #C34F00",
"aX c #B74700",
"sX c #AF4300",
"dX c white",
"fX c #FFFFD7",
"gX c #FFFFB3",
"hX c #FFFF8F",
"jX c #FFFF6B",
"kX c #FFFF47",
"lX c #FFFF23",
"zX c yellow",
"xX c #A73F00",
"cX c #9F3700",
"vX c #932F00",
"bX c #872300",
"nX c #4F3B27",
"mX c #432F1B",
"MX c #372313",
"NX c #2F1B0B",
"BX c #000053",
"VX c #000047",
"CX c #00003B",
"ZX c #00002F",
"AX c #000023",
"SX c #000017",
"DX c #00000B",
"FX c cyan",
"GX c #FF9F43",
"HX c #FFE74B",
"JX c #FF7BFF",
"KX c magenta",
"LX c #CF00CF",
"PX c #9F009B",
"IX c #6F006B",
"UX c #A76B6B",
/* pixels */
">.>.>.>.>.>.>.>.>.>.>.>.>.>.>.>.>.>.>.>.>.>.>.>.>.>.>.>.>.>.>.>.>.>.>.>.>.>.>.>.>.>.>.>.>.>.>.>.>.>.>.>.>.>.>.>.>.>.>.>.>.>.>.>.",
";.,.;.>.>.>.>.>.;.>.>.>.>.>.>.;.>.,.>.>.>.>.>.>.>.;.;.;.;.;.;.>.>.>.>.>.>.>.>.>.;.;.;.;.;.;.;.>.>.>.>.,.,.,.>.>.;.;.>.>.>.>.>.,.",
",.|.|. X X X X X X X X XoX>.>.;.#.#.#.#.#.#.#.#.#.#.#.#.#.#.#.#.#.#.#.#.&.>.,.;.|.|.|.|. X X X X X X X X X X X.X.X.X.XXXXXXXoX>.",
">.|..XXXXX XOXoX XOX.XoXk ,.>.;.#.%.-.%.-.%.-.%.-.%.*.%.*.%.-.%.-.%.%.&.;.,.>.,. XoX.XXX.XXXXX.X+X.X+X.XXX.XOXXXoX+X.XoX.XoX+X,.",
">. XoX+XoXOXoXoX+XoXOX+Xk ,.>.;.#.%.-.-.&.-.;.&.&.;.*.&.&.;.*.&.;.&.*.;.>.,.>.;. XoXoX+Xk oXOX+XOXoX+XOXoXoXOXoX+XOXoXz oX+Xk ,.",
">. X+XoXoX+XoXoXoX+XoXz ~ ,.>.;.#.-.%.&.-.&.;.&.-.&.;.&.;.-.-.&.;.*.-.;.>.,.>.>. X+XoXk OXoXk oX+XoX+XoXOXoXk oXoX+XoX+XoX+Xz ,.",
">..XoX+XOXoX+XoX+XOXoX+X~ ,.>.;.%.%.-.&.-.-.*.&.;.-.;.&.-.;.*.-.-.;.&.;.,.,.,.>.XX+XoX+XoXOXk oX+X+XoXoX+XoXOXoXoX+XoXz oXOXz ,.",
">.XX+XoXoX+XoXoX+XoX+Xz ~ ,.>.>.%.%.-.&.;.&.;.&.;.&.;.*.-.;.-.&.;.*.-.;.>.,.,.>.XXoXoXk OXoX+XOX+XOX+XoXOXoXk oX+XOXoX+XoX+X~ ,.",
">.XXoX+XOXz +X+Xz +XOX+X~ ,.,.;.*.*.;.;.,.-.;.;.-.;.,.;.-.;.-.;.,.-.;.;.,.,.,.>.XX+X+Xz +X+Xz OXz +Xz OXz +Xz OXk z +XOX+XOX~ ,.",
">.+Xk k k ~ ~ ~ ~ ~ ~ ~ ~ ,.,.>.-.>.>.>.>.>.>.>.>.>.>.>.,.,.,.,.,.,.,.,.,.,.,.>.OXk k k k k k k k k k z z z z z z z z z ~ ~ ~ ,.",
">.>.,.,.,.,.,.,.,.,.1.1.1.,.,.;.>.,.,.,.,.,.1.1.1.1.1.,.,.1.1.1.1.,.,.,.,.,.>.;.,.,.,.,.,.,.,.,.,.,.,.,.1.1.1.1.1.,.,.,.,.,.,.,.",
";.,.,.,.,.>.>.>.>.,.,.,.,.,.>.,.>.>.>.>.>.>.>.,.,.,.;.>.>.>.,.,.>.>.>.>.>.>.;.,.>.;.;.;.;.-.-.-.-.;.;.>.>.,.,.,.;.,.;.>.>.>.;.,.",
"|. X X XXXXXXXXXXXXXXXXXXXXXXXoX>.;.>.H H L L L L L L I I I I I I I I I I I I I I I I I I I I I I I I I Y >.,.;.|.|. X X X X X X",
"XXOXOXXXoX+XXX+XoXOXXXk XXOXoX~ ,.>.;.H E U I R I E R I R R I T Y R R R Y R Y R Y R I E I R T I I T I Y ! ,.>.,.|..X+XXXOXXXOXXX",
"OXoXOXoX+XOXOXk oXOXk OXoXoX+X~ ,.>.>.L U E Y R Y Y R Y E Y E E R Y R Y R Y E Y Y R E Y R Y E R Y E Y E ! ,.>.;..XXX+XoXOX+XoXoX",
"+XoXoXOXoXk oX+XOXOXoXk oXOX+X~ ,.,.>.L E Y R T R R E R R E Y R E Y R R E R R R Y W R R Y E Y E Y Y E E ! ,.,.>..X+XoXoXoX+XoX+X",
"oXOXOXoXOX+X+XOX+XoXoXk oXk +X~ ,.,.>.L E Y Y R Y E R Y E E Y E R Y R R R Y E Y R W Y E Y E R E Y E Y E ! ,.,.>..XXX+XoX+XoXoX+X",
"+XoXk oX+XOX+XoXk oXk OXoXoX+X~ ,.>.;.L U W Y R Y R E R W R E E Y R R W R Y E R W R Y E R Y E R Y E Y E ! 1.,.>.XX+XoXoXz oX+XOX",
"+XXXk +Xz +X+XoX+XoX+Xz oX+X+X~ ,.>.;.U Y E R W E T E R E E R W E T E T E R E R R W T E E R Q E T E R E ! 1.,.;.XXoX+X+Xz +XoX+X",
"~ z z z z z z z z z z z z ~ ~ ~ ,.>.;.Y E E E E E E E E E E E E E W W W W W W W W W W W W W W W W W W ! ! 1.>.,.oXk ~ k ~ ~ k ~ ",
",.,.,.1.,.,.,.1.1.1.,.,.,.1.1.,.,.>.,.>.,.,.,.,.,.,.,.,.,.,.,.,.,.,.,.,.1.1.1.1.1.,.,.,.1.1.1.1.,.,.,.,.,.,.>.;.>.,.,.,.,.,.,.,.",
";.;.>.,.,.>.;.,.;.,.>.>.,.,.,.,.>.>.;.>.>.>.,.,.,.,.,.,.,.>.>.>.;.,.;.>.,.,.,.,.,.,.>.>.;.,.,.,.,.>.>.>.;.>.;.,.;.,.,.,.;.>.>.>.",
";.#.#.#.#.#.#.#.#.#.%.%.%.%.%.%.%.%.%.%.%.%.%.%.%.%.%.&.>.;.;.XXXXoXoXoXoXoXoXoXoXoXoXOXOXOXOXOXOXOXOXOXOXOXOXOXOXOXOXOXOXOX+X>.",
";.#.-.&.%.-.%.-.%.-.&.-.&.-.&.#.-.&.-.&.-.%.&.>.&.#.;.,.,.>.;.XXOXk oX+XOX+X+XOX+XOX+XOXk z +X+Xk +X+Xk +X+X+X+X+Xk +X+Xz +X~ ,.",
",.#.&.-.&.*.&.-.;.-.&.&.-.*.-.&.-.>.&.;.&.-.>.-.&.;.&.,.,.>.-.oXOX+X+Xz +Xz +Xk +X+Xz +Xz +X+Xz +Xk +Xk +X+X+Xz +X+Xk +Xk k ~ ,.",
">.%.>.&.&.;.-.>.&.>.&.;.&.-.*.&.>.-.&.;.-.&.-.>.-.&.;.,.,.;.-.oXOXk +Xk +Xz +Xk +X+Xk +Xk +X+Xz +Xk k +X+Xk +X+X+X+Xk +Xz k ~ ,.",
">.%.&.-.&.,.&.>.;.-.&.-.;.-.&.-.-.>.-.&.>.&.-.>.&.;.>.,.,.;.-.oXk +Xk +X+Xz +X+Xk +Xz +Xz +X+Xk +Xk +Xk +X+X+Xz +Xk +X+Xk k ~ ,.",
";.%.;.>.&.,.-.-.&.>.&.>.&.>.&.-.>.-.&.-.>.&.>.-.-.-.&.,.,.>.;.oXoXk +Xk +X+X+X+Xk +Xz +Xz k k z +Xz +Xz +Xz +X+X+Xz z k +Xk ~ ,.",
">.#.&.>.;.;.;.>.;.,.;.;.-.>.-.;.;.-.;.;.>.;.*.;.*.;.;.,.,.,.;.oX+Xk +Xk +Xz k k k k z +Xk +Xz +Xz k +Xz k +Xz +Xz +Xz +Xk k ~ ,.",
">.&.*.>.>.>.>.>.>.>.>.>.>.>.>.>.>.,.,.,.,.,.,.,.,.,.,.,.,.,.;.+Xz z z z z z z z z z z z z z z z z z z z z z z z z z ~ z k z ~ ,.",
">.>.,.,.,.,.,.,.,.,.,.,.,.,.,.,.,.,.,.,.,.,.,.,.,.,.,.,.,.>.>.>.,.,.,.,.,.,.,.,.1.1.1.1.1.,.,.,.,.,.1.1.1.,.,.,.,.,.,.,.,.,.,.,.",
";.;.;.;.;.>.>.,.>.,.,.,.>.;.-.-.;.;.;.>.>.>.,.,.,.,.,.,.,.,.;.>.>.>.;.,.;.>.;.>.,.,.,.,.,.>.;.;.>.>.,.,.,.>.>.>.;.,.;.>.>.>.;.,.",
"XXXXXXXXXXXXXXXXXXXXoX>.,.;.L L L L L L L L I I I I I I I I I I I I I I I I I Y >.;.;..X|. X X X X X X X X XXXXXXXXXXXXXXXXXXXXX",
"oXXXoXXXoX.XXXXX.XoX~ ,.>.,.L Y E Y E Y Y E Y R Y Y E Y R E Y Y E Y Y E Y R Y ! ,.>.;. XoX+XoX+XoXoXk oX+XOX+XoX+XoXOXoX+XoX+XoX",
"oX+XOXoXoXoX+XoXOX+X~ ,.>.;.L E Y R R Y R Y T E Y R R E R R Y R E Y E R Y E Y ! ,.;.;. XoXz oX+XoXOXk oXOXoX+XOXOXoX+XoX+XoXOX+X",
"OX+XoXoX+XoX+XoXoX+X~ ,.>.,.L E Y Y R T Y E Y E Y R Y W Y Q R R Y R E T Y R Y ! ,.;.-. XoX+XoX+XoXOXoXOXoXoX+XoX+XoXOXoXoX+XoX+X",
"oXOX+XoXoXoXoX+XOX+X~ ,.>.;.L T E Y R Y R W T R R R E R Y E Y R E R T E R Y R ! ,.;.-. X+XoXoX+XoXk oXoX+X+XoX+XoXOXoXoXOX+X+XOX",
"oXOX+XoX+XoX+XoXoX+X~ ,.>.>.L E Y R W T Y E R R Y R Y E R Q E T E Y T E Y R Y ! ,.>.;..XoX+XoXoX+XoXOXOX+XoX+XoX+XoXOXoX+XOXoX+X",
"+X+XOXoX+X+XoX+X+X+X~ ,.>.>.T E Y Y W Y R E Y E Y E Y W R E Y R E T E T Y E R ! ,.>.;..XoXz oX+XoXoXOXoXOXoX+XoX+XoX+XoX+XoXoX+X",
"~ ~ z z z z z z z ~ ~ ,.>.>.Y E E E E E E E E E W W W W W W W W W W W W W W ! ! ,.>.>.oXk k k k k k k k k k k k k k k z z z z ~ ",
",.,.,.,.,.,.,.,.,.,.,.,.>.;.>.,.1.1.1.1.,.,.,.,.,.,.1.1.1.1.1.,.,.,.,.,.,.,.,.,.,.>.>.>.,.,.,.,.,.,.>.,.,.,.1.1.1.,.,.,.,.,.,.,.",
";.>.;.,.>.,.,.>.>.,.,.,.,.>.>.,.,.,.>.>.>.>.>.;.;.>.>.,.,.,.;.>.>.>.;.,.>.,.>.,.>.>.;.>.;.,.;.>.;.-.-.;.>.>.>.,.;.>.;.>.;.,.;.,.",
",.XX+X+XoXoXoXoXoXOXOXOXOXOXOXOXOXOXOXOXOXOXOXOXOXOXOXOXOXOXOX+X,.;.,.|.|. X X X X X X X XXXXXXXXXXXXXXXXXXXXXXXXXXXXXXXXXXXoX>.",
";.oXk k +X+Xz +X+Xk +X+Xk +Xk +X+Xz +Xk +X+X+Xz +Xz +X+Xk k +X~ ,.>.;.|.oXoXk oXk oXz oX+XoXz oXOXz oXOX+XoXOX+XoX+XoX+XOXoX~ ,.",
">.oXk z +X+Xz +X+X+Xk +Xz +Xz +X+Xz +Xz +X+X+Xz +Xk +Xk +Xk +X~ ,.>.>. XOXoXk OXk +Xz OXz oX+XoXz oXk oX+XOX+XoXOX+XoXoXk OX~ ,.",
">.oXk z +Xz +Xk z +Xz +X+Xk +X+Xz +X+X+Xz k +Xz +Xz +Xz +X+Xk ~ ,.,.>. XOXoXk k OXoX+Xz oX+Xz oXoXz oX+X+XoX+XoX+XoX+XOXk oX~ ,.",
",.oXk k +X+Xz +X+Xk +X+Xk +Xz +X+Xz +Xz +X+Xz +X+Xk +X+X+Xk k ~ ,.,.>. XoXk oXOXk oXz oX+XoX+X+Xz OXk oX+XOXoXOXoX+X+XoXOXoX~ ,.",
";.oXk z +X+Xz +Xz +Xz +Xz +Xk +Xz z +Xz +Xk +Xk +Xz +Xz +Xk +X~ 1.,.;. XoXk k oXk +Xz oXz oXz oXz oXk OX+XoX+X+XoX+XoXOXk +X~ ,.",
",.oXk z +Xz +Xk +X+Xk +X+X+X+X+X+Xz +Xk z z +Xz +Xk +Xk +Xk +X~ 1.,.;..X+XoXk OXk oXz +XoX+Xz oX+XOXk oX+XoX+XoX+XoX+XoXk oX~ ,.",
";.+Xz z z z z z z z z z z z z z z z z z z z z z z z z z z z z ~ ,.>.;.oXk k k k k k k k k z z z z z z z z z z z z z z z z ~ ~ ,.",
",.>.,.,.,.,.,.,.,.,.,.,.,.,.,.,.1.1.1.1.,.,.,.1.1.1.1.,.,.1.1.,.,.>.,.>.,.,.,.,.,.,.1.1.1.,.,.,.,.,.1.,.,.,.,.1.1.1.,.,.,.,.,.,.",
";.,.;.,.;.>.;.>.>.>.>.;.-.-.;.>.;.,.;.>.;.>.,.,.,.,.,.>.;.>.>.,.>.>.;.,.;.>.>.>.>.>.>.>.>.>.;.;.;.>.>.>.>.>.,.,.1.1.,.,.>.>.;.>.",
" X X X X XXXXXXXXXXXXXXXXXXXXXXXXXoX>.;.>.H H L L L L L L L L I I I I I I I I I I I I I I I Y >.,.;.|. X X X X XXXXXXXXXXXXXXXXX",
"+XoXz oXoXk oXk oX+X.X+XoXk oX+XoX~ ,.>.>.L Y Y Y Y E Y Q Y R Y E Y E Y Q Y E Y E Y W Y E E ! ,.>.;. XoXk OXoXz oX+XoX+XoXk oX+X",
"oX+X+XoX+XoXk oX+Xk oXz +Xk OXk OX~ ,.>.>.L R Y E Y E E Q R T R Y R E Q Q E R R E R W Y E Y ! ,.>.;. Xk oXz oX+XoX+XOXoX+XoXOXz ",
"oX+Xz +XoXk oXk +XoX+Xz oXOXk oX+X~ ,.>.,.L R R E Y E R R Y W Y Q Y Q Q Y E Y E R W R R E E ! ,.>.;. Xk oX+X+XoXoXOX+XOX+Xk +XOX",
"+XoXz oXk k oXk oX+XoXz +X+Xk oXk ~ ,.>.,.L Y Q E Y E Y Q Y R T E Y Q Q R E Y E Y R W E T E ! ,.>.;. XoXk z oXOX+X+XoX+XoXk +XoX",
"k oX+XoXk oXk OXoXk oX+Xz OXoX+XOX~ ,.>.,.L Q Y Y E Y R E R W R Q Q Q Q E R R E R E W R E E ! ,.>.>. Xk oXOXoX+XoXOX+X+Xz oX+XoX",
"k oX+X+Xk oXoXk oXk +Xz oXk oXk oX~ ,.>.>.L Q Y E Y E R R R Q T Q Q Q Y R E Y R E Y W Y W R ! ,.,.>. Xk oXz +Xz oX+XoX+Xz k oXz ",
"+XoXz oXk k OXk +X+XoXz oXk +XOX+X~ ,.>.;.I Y Q E Y E Y Q R E Y E Q E E Y E R Y E R E R E R ! ,.,.>..Xk k z oXz oX+XoX+XoXk oX+X",
"z z z z z z z z z z z z z z z z ~ ~ ,.>.>.Y ! ! ! ! ! Q Q Q Q Q Q Q Q Q Q Q Q Q Q Q Q Q Q ! ! 1.>.;.oX~ ~ z z z z z z z z z z z ",
",.,.,.,.,.,.,.,.,.,.,.,.,.,.,.,.,.,.,.>.;.>.,.,.,.,.,.,.,.,.,.,.,.,.,.,.,.,.,.1.1.1.1.1.,.1.1.1.,.>.>.,.,.,.,.,.,.1.1.1.1.1.,.,.",
",.;.,.;.,.,.,.>.>.>.>.>.;.;.,.>.>.>.>.;.;.;.;.;.>.>.>.;.>.>.>.;.>.>.,.>.>.>.,.,.,.,.,.,.,.>.,.,.,.;.>.>.,.;.>.>.>.>.,.,.,.>.>.>.",
";.;.;.;.;.;.;.;.;.;.;.;.;.;.;.;.;.;.;.;.;.;.;.;.;.;.;.;.;.;.;.;.;.;.;.;.;.;.;.;.;.;.;.;.;.;.;.;.;.;.;.;.;.;.;.;.;.;.;.;.;.;.;.;."
};
