/* XPM */
static char *a16241f576534cb8ca80d9121f14db47UffWd0LpmsoNudjq[] = {
/* columns rows colors chars-per-pixel */
"64 64 256 2 ",
"   c black",
".  c #1F170B",
"X  c #170F07",
"o  c #4B4B4B",
"O  c white",
"+  c #1B1B1B",
"@  c #131313",
"#  c #0B0B0B",
"$  c #070707",
"%  c #2F371F",
"&  c #232B0F",
"*  c #171F07",
"=  c #0F1700",
"-  c #4F3B2B",
";  c #473323",
":  c #3F2B1B",
">  c #FFB7B7",
",  c #F7ABAB",
"<  c #F3A3A3",
"1  c #EB9797",
"2  c #E78F8F",
"3  c #DF8787",
"4  c #DB7B7B",
"5  c #D37373",
"6  c #CB6B6B",
"7  c #C76363",
"8  c #BF5B5B",
"9  c #BB5757",
"0  c #B34F4F",
"q  c #AF4747",
"w  c #A73F3F",
"e  c #A33B3B",
"r  c #9B3333",
"t  c #972F2F",
"y  c #8F2B2B",
"u  c #8B2323",
"i  c #831F1F",
"p  c #7F1B1B",
"a  c #771717",
"s  c #731313",
"d  c #6B0F0F",
"f  c #670B0B",
"g  c #5F0707",
"h  c #5B0707",
"j  c #530707",
"k  c #4F0000",
"l  c #470000",
"z  c #430000",
"x  c #FFEBDF",
"c  c #FFE3D3",
"v  c #FFDBC7",
"b  c #FFD3BB",
"n  c #FFCFB3",
"m  c #FFC7A7",
"M  c #FFBF9B",
"N  c #FFBB93",
"B  c #FFB383",
"V  c #F7AB7B",
"C  c #EFA373",
"Z  c #E79B6B",
"A  c #DF9363",
"S  c #D78B5B",
"D  c #CF8353",
"F  c #CB7F4F",
"G  c #BF7B4B",
"H  c #B37347",
"J  c #AB6F43",
"K  c #A36B3F",
"L  c #9B633B",
"P  c #8F5F37",
"I  c #875733",
"U  c #7F532F",
"Y  c #774F2B",
"T  c #6B4727",
"R  c #5F4323",
"E  c #533F1F",
"W  c #4B371B",
"Q  c #3F2F17",
"!  c #332B13",
"~  c #2B230F",
"^  c #EFEFEF",
"/  c #E7E7E7",
"(  c #DFDFDF",
")  c gray86",
"_  c LightGray",
"`  c #CBCBCB",
"'  c gray78",
"]  c gray75",
"[  c #B7B7B7",
"{  c gray70",
"}  c gray67",
"|  c #A7A7A7",
" . c #9F9F9F",
".. c #979797",
"X. c #939393",
"o. c #8B8B8B",
"O. c #838383",
"+. c gray50",
"@. c #777777",
"#. c #6F6F6F",
"$. c gray42",
"%. c gray39",
"&. c #5B5B5B",
"*. c gray34",
"=. c gray31",
"-. c gray28",
";. c #434343",
":. c gray23",
">. c #373737",
",. c #2F2F2F",
"<. c #272727",
"1. c #232323",
"2. c #77FF6F",
"3. c #6FEF67",
"4. c #67DF5F",
"5. c #5FCF57",
"6. c #5BBF4F",
"7. c #53AF47",
"8. c #4B9F3F",
"9. c #439337",
"0. c #3F832F",
"q. c #37732B",
"w. c #2F6323",
"e. c #27531B",
"r. c #1F4317",
"t. c #17330F",
"y. c #13230B",
"u. c #0B1707",
"i. c #BFA78F",
"p. c #B79F87",
"a. c #AF977F",
"s. c #A78F77",
"d. c #9F876F",
"f. c #9B7F6B",
"g. c #937B63",
"h. c #8B735B",
"j. c #836B57",
"k. c #7B634F",
"l. c #775F4B",
"z. c #6F5743",
"x. c #67533F",
"c. c #5F4B37",
"v. c #574333",
"b. c #533F2F",
"n. c #9F8363",
"m. c #8F7753",
"M. c #836B4B",
"N. c #775F3F",
"B. c #675333",
"V. c #5B472B",
"C. c #4F3B23",
"Z. c #43331B",
"A. c #7B7F63",
"S. c #6F7357",
"D. c #676B4F",
"F. c #5B6347",
"G. c #53573B",
"H. c #474F33",
"J. c #3F472B",
"K. c #373F27",
"L. c #FFFF73",
"P. c #EBDB57",
"I. c #D7BB43",
"U. c #C39B2F",
"Y. c #AF7B1F",
"T. c #9B5B13",
"R. c #874307",
"E. c #732B00",
"W. c white",
"Q. c #FFDBDB",
"!. c #FFBBBB",
"~. c #FF9B9B",
"^. c #FF7B7B",
"/. c #FF5F5F",
"(. c #FF3F3F",
"). c #FF1F1F",
"_. c red",
"`. c #EF0000",
"'. c #E30000",
"]. c #D70000",
"[. c #CB0000",
"{. c #BF0000",
"}. c #B30000",
"|. c #A70000",
" X c #9B0000",
".X c #8B0000",
"XX c #7F0000",
"oX c #730000",
"OX c #670000",
"+X c #5B0000",
"@X c #4F0000",
"#X c #430000",
"$X c #E7E7FF",
"%X c #C7C7FF",
"&X c #ABABFF",
"*X c #8F8FFF",
"=X c #7373FF",
"-X c #5353FF",
";X c #3737FF",
":X c #1B1BFF",
">X c blue",
",X c #0000E3",
"<X c #0000CB",
"1X c #0000B3",
"2X c #00009B",
"3X c #000083",
"4X c #00006B",
"5X c #000053",
"6X c white",
"7X c #FFEBDB",
"8X c #FFD7BB",
"9X c #FFC79B",
"0X c #FFB37B",
"qX c #FFA35B",
"wX c #FF8F3B",
"eX c #FF7F1B",
"rX c #F37317",
"tX c #EB6F0F",
"yX c #DF670F",
"uX c #D75F0B",
"iX c #CB5707",
"pX c #C34F00",
"aX c #B74700",
"sX c #AF4300",
"dX c white",
"fX c #FFFFD7",
"gX c #FFFFB3",
"hX c #FFFF8F",
"jX c #FFFF6B",
"kX c #FFFF47",
"lX c #FFFF23",
"zX c yellow",
"xX c #A73F00",
"cX c #9F3700",
"vX c #932F00",
"bX c #872300",
"nX c #4F3B27",
"mX c #432F1B",
"MX c #372313",
"NX c #2F1B0B",
"BX c #000053",
"VX c #000047",
"CX c #00003B",
"ZX c #00002F",
"AX c #000023",
"SX c #000017",
"DX c #00000B",
"FX c cyan",
"GX c #FF9F43",
"HX c #FFE74B",
"JX c #FF7BFF",
"KX c magenta",
"LX c #CF00CF",
"PX c #9F009B",
"IX c #6F006B",
"UX c #A76B6B",
/* pixels */
"Q Q Q Q Q Q Q Q Q Q Q Q Q Q Q Q Q Q Q Q Q Q Q Q Q Q Q Q Q Q Q Q Q Q Q Q Q Q Q Q Q Q Q Q Q Q Q Q Q Q Q Q Q Q Q Q Q Q Q Q Q Q Q Q ",
"T T T T T T T T T T T T T T T T T T T T T T T T T T T T T T T T T T T T T T T T T T T T T T T T T T T T T T T T T T T T T T T T ",
"P P P P P P P P P P P P P P P P P P P P P P P P P P P P P P P P P P P P P P P P P P P P P P P P P P P P P P P P P P P P P P P P ",
"E E E E E E E ! E ~ ! E E E E E E E E E E E E E E ! E ~ ! E E E E ! E ~ ! E E E E E E ! E ~ ! E E E E E E E E E E E ! E ~ ! E E ",
"W W T Y Y Y Y E P ~ E P R W W W W Y Y W T W T W W E P ~ E P Y W Y E P ~ E P R W W W R E P ~ E P W Y W W Y W Y W Y Y E P ~ E P T ",
"W W T Y Y Y R E P ~ E P T W W W E Y Y W T W T W W E P ~ E P Y W Y E P ~ E P Y R W R Y E P ~ E P W Y W W Y W Y W Y Y E P ~ E P T ",
"W W R Y Y Y E E P ~ E P Y E W W E Y Y W T W T W W E P ~ E P T W Y E P ~ E P Y Y R Y Y E P ~ E P W Y W W Y W Y W Y Y E P ~ E P T ",
"E W E T Y Y E E P ~ E P Y E W W R Y T W T W T W W E P ~ E P T W Y E P ~ E P Y Y Y Y Y E P ~ E P W Y W W Y W Y W Y Y E P ~ E P T ",
"T W W R Y R W E P ~ E P Y R W E T Y T W T W T W W E P ~ E P T W Y E P ~ E P Y Y Y Y Y E P ~ E P W Y W W Y W Y W T Y E P ~ E P E ",
"T W E W R E W E P ~ E P Y T W R Y Y R W T W T W W E P ~ E P R W Y E P ~ E P Y Y Y Y Y E P ~ E P W Y W W Y W Y W T Y E P ~ E P E ",
"Y E W W E W W E P ~ E P Y Y R T Y Y R W T W T W W E P ~ E P R W Y E P ~ E P Y Y Y Y Y E P ~ E P W Y W W Y W Y W R Y E P ~ E P E ",
"Y E W W W W E E P ~ E P Y Y T Y Y Y E W T W T W W E P ~ E P W W Y E P ~ E P Y Y Y Y Y E P ~ E P W Y W W Y W Y W R Y E P ~ E P W ",
"T Y W W W E Y E P ~ E P Y Y T Y Y Y E W T W T W W E P ~ E P W R Y E P ~ E P T Y Y Y Y E P ~ E P W Y W W Y W Y E W Y E P ~ E P W ",
"T Y E W W E Y E P ~ E P Y Y Y Y Y T W W T W T W W E P ~ E P W R Y E P ~ E P T Y Y Y T E P ~ E P W Y W W Y W Y E W Y E P ~ E P W ",
"R Y Y W E Y Y E P ~ E P Y Y Y Y Y T W W T W T W W E P ~ E P W Y Y E P ~ E P R Y Y Y T E P ~ E P W Y W W Y W Y E W Y E P ~ E P W ",
"E Y Y Y E Y R E P ~ E P T Y Y Y Y T W W T W T W W E P ~ E P R Y Y E P ~ E P W T Y T R E P ~ E P W Y W W Y W Y E W Y E P ~ E P E ",
"W T Y Y R Y E E P ~ E P T Y Y Y Y R W W T W T W W E P ~ E P R Y T E P ~ E P W R T R W E P ~ E P W Y W W Y W Y R W Y E P ~ E P E ",
"W T Y Y Y Y E E P ~ E P R Y Y Y Y R W W T W T W W E P ~ E P Y Y T E P ~ E P W W R W W E P ~ E P W Y W W Y W Y R W T E P ~ E P E ",
"W R T Y Y Y W E P ~ E P R Y Y Y Y E W W T W T W W E P ~ E P Y Y R E P ~ E P W W W W W E P ~ E P W Y W W Y W Y T W T E P ~ E P T ",
"W E T Y Y R W E P ~ E P E T Y Y Y E W E T W T W W E P ~ E P Y T R E P ~ E P W W W W W E P ~ E P W Y W W Y W Y T W T E P ~ E P T ",
"W W R Y Y E W E P ~ E P E T Y Y T W W E T W T W W E P ~ E P Y T W E P ~ E P W W W W W E P ~ E P W Y W W Y W Y T W R E P ~ E P T ",
"W W E Y Y E W E P ~ E P W R Y Y T W W E T W T W W E P ~ E P Y R W E P ~ E P R W W W R E P ~ E P W Y W W Y W Y Y W R E P ~ E P T ",
"E W E R E W W E P ~ E P W R Y Y R W W R T W T W W E P ~ E P T W W E P ~ E P T R W R T E P ~ E P W Y W W Y W T Y W W E P ~ E P T ",
"E W W E W W E E P ~ E P W E T T R W W R T W T W W E P ~ E P R W W E P ~ E P Y T R T Y E P ~ E P W Y W W Y W T Y E W E P ~ E P T ",
"E W W W W W E E P ~ E P W E R R E W W R R W T W W E P ~ E P W W W E P ~ E P Y Y T Y Y E P ~ E P W Y W W Y W R Y E W E P ~ E P R ",
"T W W W W W T E P ~ E P W W E E W W W T E W T W W E P ~ E P W W W E P ~ E P Y Y Y Y Y E P ~ E P W Y W W Y W R Y R W E P ~ E P E ",
"T W W W W W T E P ~ E P W W W W W W W T E W T W W E P ~ E P W W E E P ~ E P Y Y Y Y Y E P ~ E P W Y W W Y W E Y R W E P ~ E P E ",
"T E W W W E R E P ~ E P W W W W W W E Y W W T W W E P ~ E P W W E E P ~ E P Y Y Y Y Y E P ~ E P W Y W W Y W E Y T E E P ~ E P W ",
"R E W W W E E E P ~ E P W W W W W W R Y W W T W W E P ~ E P W W R E P ~ E P T Y Y Y Y E P ~ E P W Y W W Y W E Y T E E P ~ E P W ",
"E T W W W T E E P ~ E P W W W W W W R Y W W T W W E P ~ E P W W T E P ~ E P T Y Y Y Y E P ~ E P W Y W W Y W W Y Y R W P ~ E P W ",
"E T E W W T W E P ~ E P W W W W W W T Y W W T W W E P ~ E P W E T E P ~ E P R Y Y Y T E P ~ E P W Y W W Y W W Y Y R E P ~ E P W ",
"W R E W T R W E P ~ E P E W W W W W T Y W W T W W E P ~ E P W R Y E P ~ E P R T Y Y T E P ~ E P W Y W W Y W W T Y T E P ~ E P W ",
"W E T E T E W E P ~ E P R W W W W E Y T W E T W W E P ~ E P E T Y E P ~ E P W T Y Y R E P ~ E P W Y W W Y W W T Y T E P ~ E P W ",
"W E T E T E W E P ~ E P T E W W W R Y T W E T W W E P ~ E P R Y Y E P ~ E P W R Y T W E P ~ E P W Y W W Y E W R Y Y E P ~ E P W ",
"W W R T R W W E P ~ E P Y R W W E R Y R W R T W W E P ~ E P T Y Y E P ~ E P W W T R W E P ~ E P W Y W W Y E W R Y Y E P ~ E P E ",
"W W E R E W W E P ~ E P Y T E W E Y Y E W R T W W E P ~ E P Y Y Y E P ~ E P W W R W W E P ~ E P W Y W W Y E W E Y Y E P ~ E P E ",
"W W W E W W W E P ~ E P Y Y R W R Y Y E W R T W W E P ~ E P Y Y T E P ~ E P W W W W W E P ~ E P W Y W W Y E W E Y Y E P ~ E P R ",
"W W W W W W W E P ~ E P Y Y Y R Y Y Y W W T T W W E P ~ E P Y Y T E P ~ E P W W W W W E P ~ E P W Y W W Y R W E Y Y E P ~ E P T ",
"W W W W W W E E P ~ E P Y Y Y Y Y Y T W W T T W W E P ~ E P Y Y R E P ~ E P W W W W W E P ~ E P W Y W W Y R W W T Y E P ~ E P T ",
"E W W W W W E E P ~ E P T Y Y Y Y Y T W W Y T W W E P ~ E P Y T R E P ~ E P R W W W W E P ~ E P W Y W W Y T W W T Y E P ~ E P T ",
"E W W W W W R E P ~ E P T Y Y Y Y Y R W W Y T W W E P ~ E P Y T W E P ~ E P R W W W W E P ~ E P W Y W W T T W W R Y E P ~ E P E ",
"T E W W W E R E P ~ E P R Y Y Y Y Y E W W Y R W W E P ~ E P Y R W E P ~ E P T R W W R E P ~ E P W Y W W T Y W W R Y E P ~ E P E ",
"T E W W W E T E P ~ E P E Y Y Y Y Y W W W Y R W W E P ~ E P T R W E P ~ E P Y R W R R E P ~ E P W Y W W R Y E W E T E P ~ E P W ",
"T R E W E R T E P ~ E P W T Y Y Y T W W E Y W W W E P ~ E P T W W E P ~ E P Y T R R T E P ~ E P W Y W W R Y E W E T E P ~ E P W ",
"T T E E E T R E P ~ E P W R Y Y Y R W W R Y W W W E P ~ E P R W W E P ~ E P Y Y R T Y E P ~ E P W Y W W E Y E W E R E P ~ E P W ",
"R T R E R T E E P ~ E P W E T Y T E W W T Y W W W E P ~ E P W W W E P ~ E P Y Y T Y Y E P ~ E P W Y W W E Y R W W R E P ~ E P W ",
"E T T R T T E E P ~ E P W W E T R W W W T Y W W W E P ~ E P W W E E P ~ E P Y Y Y Y Y E P ~ E P W Y W W E Y R E W E E P ~ E P W ",
"E T T R T T W E P ~ E P W W W E E W W W Y T W W W E P ~ E P W W E E P ~ E P Y Y Y Y Y E P ~ E P W Y W W E Y T E W E E P ~ E P W ",
"W T Y Y Y T W E P ~ E P E W W W W W W E Y T W W W E P ~ E P W W R E P ~ E P Y Y Y Y T E P ~ E P W Y W W W Y T E W E E P ~ E P W ",
"W R Y Y Y T W E P ~ E P E W W W W W W R Y R W W W E P ~ E P W E T E P ~ E P T Y Y Y T E P ~ E P W Y W W W T Y R W W E P ~ E P W ",
"W E T Y Y T W E P ~ E P R W W W W W W T Y R W W W E P ~ E P W R Y E P ~ E P T Y Y Y R E P ~ E P W Y W W W T Y R E W E P ~ E P W ",
"W E T Y Y R W E P ~ E P T E W W W W W T Y W W W W E P ~ E P E T Y E P ~ E P R Y Y Y R E P ~ E P W Y W W W R Y T E W E P ~ E P E ",
"W W R Y T R W E P ~ E P Y E W W W W E Y T W W W W E P ~ E P T Y Y E P ~ E P R Y Y T E E P ~ E P W Y W W W R Y T R W E P ~ E P E ",
"W W E T T E W E P ~ E P Y R W W W W R Y T W W R W E P ~ E P Y Y Y E P ~ E P E T Y T E E P ~ E P W Y E W W E T Y R E E P ~ E P R ",
"W W E T R E W E P ~ E P T T E W W W T Y R W W R W E P ~ E P Y Y Y E P ~ E P E T Y R W E P ~ E P W Y E W W E R Y T E E P ~ E P R ",
"W W W R R W W E P ~ E P T Y E W W E T Y W W W T W E P ~ E P Y Y Y E P ~ E P W R T E W E P ~ E P W Y E W W W R Y T E E P ~ E P T ",
"W W W E E W W E P ~ E P R Y T E W E Y Y W W W T W E P ~ E P Y Y Y E P ~ E P W E R W W E P ~ E P W Y E W W W E T Y E E P ~ E P T ",
"E W W W W W E E P ~ E P W T Y T E Y Y T W W W T W E P ~ E P Y Y Y E P ~ E P W W E W W E P ~ E P W T R W W W E R Y T E P ~ E P Y ",
"E W W W W W E E P ~ E P W R Y Y Y Y Y R W W W Y W E P ~ E P Y Y T E P ~ E P W W W W W E P ~ E P W T T W W W W R Y T E P ~ E P Y ",
"R W W W W W T E P ~ E P W W Y Y Y Y T W W W R Y W E P ~ E P Y Y T E P ~ E P W W W W W E P ~ E P W R T E W W W E T T E P ~ E P Y ",
"R E W W W E T E P ~ E P W W R T Y T R W W W T Y W E P ~ E P Y T R E P ~ E P W W W W W E P ~ E P W R Y E W W W W R R E P ~ E P Y ",
"T E W W W E T E P ~ E P W W W R T R W W W W T Y W E P ~ E P Y T R E P ~ E P W W W W W E P ~ E P W W Y E W W W W W E E P ~ E P Y ",
"T R W W W E T E P ~ E P W W W W R W W W W T Y Y R E P ~ E P T R W E P ~ E P W W W W W E P ~ E P R W Y R W W W W W W E P ~ E P Y ",
"R R R R R R R E P ~ E P R W W W W W W W R R R R R E P ~ E P R W W E P ~ E P R W W W R E P ~ E P R W R R W W W W W W E P ~ E P R "
};
